ffmpeg version 7.0.2 Copyright (c) 2000-2024 the FFmpeg developers
  built with gcc 14 (GCC)
  configuration: --prefix=/usr --bindir=/usr/bin --datadir=/usr/share/ffmpeg --docdir=/usr/share/doc/ffmpeg --incdir=/usr/include/ffmpeg --libdir=/usr/lib64 --mandir=/usr/share/man --arch=x86_64 --optflags='-O2 -flto=auto -ffat-lto-objects -fexceptions -g -grecord-gcc-switches -pipe -Wall -Wno-complain-wrong-lang -Werror=format-security -Wp,-U_FORTIFY_SOURCE,-D_FORTIFY_SOURCE=3 -Wp,-D_GLIBCXX_ASSERTIONS -specs=/usr/lib/rpm/redhat/redhat-hardened-cc1 -fstack-protector-strong -specs=/usr/lib/rpm/redhat/redhat-annobin-cc1 -m64 -march=x86-64 -mtune=generic -fasynchronous-unwind-tables -fstack-clash-protection -fcf-protection -mtls-dialect=gnu2 -fno-omit-frame-pointer -mno-omit-leaf-frame-pointer' --extra-ldflags='-Wl,-z,relro -Wl,--as-needed -Wl,-z,pack-relative-relocs -Wl,-z,now -specs=/usr/lib/rpm/redhat/redhat-hardened-ld -specs=/usr/lib/rpm/redhat/redhat-annobin-cc1 -Wl,--build-id=sha1 ' --extra-cflags=' -I/usr/include/rav1e' --enable-libopencore-amrnb --enable-libopencore-amrwb --enable-libvo-amrwbenc --enable-version3 --enable-bzlib --enable-chromaprint --enable-fontconfig --enable-frei0r --enable-gcrypt --enable-gnutls --enable-ladspa --enable-lcms2 --enable-libaom --enable-libaribb24 --enable-libaribcaption --enable-libdav1d --enable-libass --enable-libbluray --enable-libbs2b --enable-libcodec2 --enable-libcdio --enable-libdrm --enable-libjack --enable-libjxl --enable-libfreetype --enable-libfribidi --enable-libgsm --enable-libharfbuzz --enable-libilbc --enable-libmp3lame --enable-libmysofa --enable-nvenc --enable-openal --enable-opencl --enable-opengl --enable-libopenh264 --enable-libopenjpeg --enable-libopenmpt --enable-libopus --enable-libpulse --enable-libplacebo --enable-librsvg --enable-librav1e --enable-librubberband --enable-libqrencode --enable-libsmbclient --enable-version3 --enable-libsnappy --enable-libsoxr --enable-libspeex --enable-libsrt --enable-libssh --enable-libsvtav1 --enable-libtesseract --enable-libtheora --enable-libtwolame --enable-libvorbis --enable-libv4l2 --enable-libvidstab --enable-libvmaf --enable-version3 --enable-vapoursynth --enable-libvpx --enable-vulkan --enable-libshaderc --enable-libwebp --enable-libx264 --enable-libx265 --enable-libxvid --enable-libxml2 --enable-libzimg --enable-libzmq --enable-libzvbi --enable-lv2 --enable-avfilter --enable-libmodplug --enable-postproc --enable-pthreads --disable-static --enable-shared --enable-gpl --disable-debug --disable-stripping --shlibdir=/usr/lib64 --enable-lto --enable-libvpl --enable-runtime-cpudetect
  libavutil      59.  8.100 / 59.  8.100
  libavcodec     61.  3.100 / 61.  3.100
  libavformat    61.  1.100 / 61.  1.100
  libavdevice    61.  1.100 / 61.  1.100
  libavfilter    10.  1.100 / 10.  1.100
  libswscale      8.  1.100 /  8.  1.100
  libswresample   5.  1.100 /  5.  1.100
  libpostproc    58.  1.100 / 58.  1.100
Input #0, gif, from '/home/ep/Downloads/uwwte8wps4h91.gif':
  Duration: 00:00:03.90, start: 0.000000, bitrate: 339 kb/s
  Stream #0:0: Video: gif, bgra, 1920x1080, 6.67 fps, 6.67 tbr, 100 tbn
Stream mapping:
  Stream #0:0 -> #0:0 (gif (native) -> png (native))
Press [q] to stop, [?] for help
Output #0, image2, to '/tmp/wallsy/frames//frame_%04d.png':
  Metadata:
    encoder         : Lavf61.1.100
  Stream #0:0: Video: png, rgba(pc, gbr/unknown/unknown, progressive), 1920x1080, q=2-31, 200 kb/s, 6.67 fps, 6.67 tbn
      Metadata:
        encoder         : Lavc61.3.100 png
[out#0/image2 @ 0x55defb012740] video:1431KiB audio:0KiB subtitle:0KiB other streams:0KiB global headers:0KiB muxing overhead: unknown
frame=   26 fps=0.0 q=-0.0 Lsize=N/A time=00:00:03.90 bitrate=N/A speed=8.95x    
